<?xml version="1.0" encoding="UTF-8"?>
<svg xmlns="http://www.w3.org/2000/svg"><defs><symbol id="svgsp0001"><g color="var(--token-39139dc2-5826-48d3-90f9-4b466d460b8b, rgb(75, 174, 250))" weight="fill"><path d="M152,112a8,8,0,0,1-8,8H112a8,8,0,0,1,0-16h32A8,8,0,0,1,152,112Zm80-40V200a16,16,0,0,1-16,16H40a16,16,0,0,1-16-16V72A16,16,0,0,1,40,56H80V48a24,24,0,0,1,24-24h48a24,24,0,0,1,24,24v8h40A16,16,0,0,1,232,72ZM96,56h64V48a8,8,0,0,0-8-8H104a8,8,0,0,0-8,8Zm120,57.61V72H40v41.61A184,184,0,0,0,128,136,184,184,0,0,0,216,113.61Z"></path></g></symbol><symbol id="svgsp0002"><g color="var(--token-39139dc2-5826-48d3-90f9-4b466d460b8b, rgb(75, 174, 250))" weight="fill"><path d="M217,34.8a15.94,15.94,0,0,0-14.82-1.71C188.15,38.55,159.82,47.71,128,47.71S67.84,38.55,53.79,33.09A16,16,0,0,0,32,48v55.77c0,35.84,9.65,69.65,27.18,95.18,18.16,26.46,42.6,41,68.82,41s50.66-14.57,68.82-41C214.35,173.44,224,139.63,224,103.79V48A16,16,0,0,0,217,34.8ZM78,133.33A8,8,0,1,1,66,122.66C71.75,116.28,82.18,112,92,112s20.25,4.28,26,10.66A8,8,0,1,1,106,133.33c-2.68-3-8.85-5.33-14-5.33S80.64,130.34,78,133.33Zm90.49,47.86a52.9,52.9,0,0,1-80.9,0A8,8,0,1,1,99.72,170.8a36.89,36.89,0,0,0,56.56,0,8,8,0,0,1,12.17,10.39ZM189.34,134a8,8,0,0,1-11.3-.63c-2.68-3-8.85-5.33-14-5.33s-11.36,2.34-14,5.33A8,8,0,1,1,138,122.66c5.71-6.38,16.14-10.66,26-10.66s20.25,4.28,26,10.66A8,8,0,0,1,189.34,134Z"></path></g></symbol><symbol id="svgsp0003"><g color="var(--token-39139dc2-5826-48d3-90f9-4b466d460b8b, rgb(75, 174, 250))" weight="fill"><path d="M128,76a44,44,0,1,1-44,44A44,44,0,0,1,128,76Zm48-12h48a8,8,0,0,0,0-16H176a8,8,0,0,0,0,16Zm39.87,24.46A8,8,0,0,0,211,98.67a88,88,0,0,1-17.23,87.74A79.86,79.86,0,0,0,172,165.1a4,4,0,0,0-4.84.32,59.81,59.81,0,0,1-78.27,0A4,4,0,0,0,84,165.1a79.71,79.71,0,0,0-21.79,21.31A88,88,0,0,1,128,40a88.76,88.76,0,0,1,14.68,1.22,8,8,0,0,0,2.64-15.78,103.9,103.9,0,1,0,80.76,67.89A8,8,0,0,0,215.87,88.46Z"></path></g></symbol><symbol id="svgsp0004"><g color="var(--token-39139dc2-5826-48d3-90f9-4b466d460b8b, rgb(75, 174, 250))" weight="fill"><path d="M28,112H228a4,4,0,0,1,4,4v40a4,4,0,0,1-4,4H28a4,4,0,0,1-4-4V116A4,4,0,0,1,28,112Zm-4,88a16,16,0,0,0,16,16H216a16,16,0,0,0,16-16V180a4,4,0,0,0-4-4H28a4,4,0,0,0-4,4ZM232,72V92a4,4,0,0,1-4,4H28a4,4,0,0,1-4-4V72A16,16,0,0,1,40,56H80V48a24,24,0,0,1,24-24h48a24,24,0,0,1,24,24v8h40A16,16,0,0,1,232,72ZM160,48a8,8,0,0,0-8-8H104a8,8,0,0,0-8,8v8h64Z"></path></g></symbol><symbol id="svgsp0005"><g color="var(--token-39139dc2-5826-48d3-90f9-4b466d460b8b, rgb(75, 174, 250))" weight="fill"><path d="M232,208a8,8,0,0,1-8,8H32a8,8,0,0,1,0-16H224A8,8,0,0,1,232,208Zm0-152V168a16,16,0,0,1-16,16H40a16,16,0,0,1-16-16V56A16,16,0,0,1,40,40H216A16,16,0,0,1,232,56Zm-68,56a8,8,0,0,0-3.41-6.55l-40-28A8,8,0,0,0,108,84v56a8,8,0,0,0,12.59,6.55l40-28A8,8,0,0,0,164,112Z"></path></g></symbol><symbol id="svgsp0006"><g color="var(--token-39139dc2-5826-48d3-90f9-4b466d460b8b, rgb(75, 174, 250))" weight="fill"><path d="M128,24A104,104,0,1,0,232,128,104.11,104.11,0,0,0,128,24Zm12,152h-4v8a8,8,0,0,1-16,0v-8H104a8,8,0,0,1,0-16h36a12,12,0,0,0,0-24H116a28,28,0,0,1,0-56h4V72a8,8,0,0,1,16,0v8h16a8,8,0,0,1,0,16H116a12,12,0,0,0,0,24h24a28,28,0,0,1,0,56Z"></path></g></symbol><symbol id="svgsp0007"><use href="#svg11473287454"></use></symbol><symbol id="svgsp0008"><use href="#svg9343570413"></use></symbol><symbol id="svgsp0009"><g color="var(--token-39139dc2-5826-48d3-90f9-4b466d460b8b, rgb(75, 174, 250))" weight="regular"><path d="M244.8,150.4a8,8,0,0,1-11.2-1.6A51.6,51.6,0,0,0,192,128a8,8,0,0,1-7.37-4.89,8,8,0,0,1,0-6.22A8,8,0,0,1,192,112a24,24,0,1,0-23.24-30,8,8,0,1,1-15.5-4A40,40,0,1,1,219,117.51a67.94,67.94,0,0,1,27.43,21.68A8,8,0,0,1,244.8,150.4ZM190.92,212a8,8,0,1,1-13.84,8,57,57,0,0,0-98.16,0,8,8,0,1,1-13.84-8,72.06,72.06,0,0,1,33.74-29.92,48,48,0,1,1,58.36,0A72.06,72.06,0,0,1,190.92,212ZM128,176a32,32,0,1,0-32-32A32,32,0,0,0,128,176ZM72,120a8,8,0,0,0-8-8A24,24,0,1,1,87.24,82a8,8,0,1,0,15.5-4A40,40,0,1,0,37,117.51,67.94,67.94,0,0,0,9.6,139.19a8,8,0,1,0,12.8,9.61A51.6,51.6,0,0,1,64,128,8,8,0,0,0,72,120Z"></path></g></symbol><symbol id="svgsp0010"><g color="var(--token-39139dc2-5826-48d3-90f9-4b466d460b8b, rgb(75, 174, 250))" weight="regular"><path d="M53.92,34.62A8,8,0,0,0,48,32,16,16,0,0,0,32,48V208a16,16,0,0,0,16,16H208a8,8,0,0,0,5.92-13.38ZM73.55,80H48V51.88ZM48,208V96H88.1L189.92,208ZM224,48V177.23a8,8,0,1,1-16,0V96H134.88a8,8,0,0,1,0-16H208V48H184v8a8,8,0,0,1-16,0V48H91.25a8,8,0,0,1,0-16H168V24a8,8,0,0,1,16,0v8h24A16,16,0,0,1,224,48Z"></path></g></symbol><symbol id="svgsp0011"><g color="var(--token-39139dc2-5826-48d3-90f9-4b466d460b8b, rgb(75, 174, 250))" weight="regular"><path d="M217,34.8a15.94,15.94,0,0,0-14.82-1.71C188.15,38.55,159.82,47.71,128,47.71S67.84,38.55,53.79,33.09A16,16,0,0,0,32,48v55.77c0,35.84,9.65,69.65,27.18,95.18,18.16,26.46,42.6,41,68.82,41s50.66-14.57,68.82-41C214.35,173.44,224,139.63,224,103.79V48A16,16,0,0,0,217,34.8Zm-9,69c0,32.64-8.66,63.23-24.37,86.13C168.54,211.9,148.79,224,128,224s-40.54-12.1-55.63-34.08C56.66,167,48,136.43,48,103.79V48c15.11,5.87,45.58,15.71,80,15.71S192.9,53.87,208,48v55.81Zm-18,18.87A8,8,0,1,1,178,133.33c-2.68-3-8.85-5.33-14-5.33s-11.36,2.34-14,5.33A8,8,0,1,1,138,122.66c5.71-6.38,16.14-10.66,26-10.66S184.25,116.28,190,122.66ZM92,128c-5.19,0-11.36,2.34-14,5.33A8,8,0,1,1,66,122.66C71.75,116.28,82.18,112,92,112s20.25,4.28,26,10.66A8,8,0,1,1,106,133.33C103.36,130.34,97.19,128,92,128Zm76.45,45.19a52.9,52.9,0,0,1-80.9,0A8,8,0,1,1,99.72,162.8a36.89,36.89,0,0,0,56.56,0,8,8,0,0,1,12.17,10.39Z"></path></g></symbol><symbol id="svgsp0012"><polyline points="6 9 12 15 18 9"></polyline></symbol><symbol id="svgsp0013"><path d="M 13 26.5 C 20.18 26.5 26 20.68 26 13.5 C 26 6.32 20.18 0.5 13 0.5 C 5.82 0.5 0 6.32 0 13.5 C 0 20.68 5.82 26.5 13 26.5 Z" fill="rgba(255, 255, 255, 0.02)"></path><path d="M 7.117 14.341 L 10.479 17.702 L 18.883 9.298" fill="transparent" stroke-width="2" stroke="var(--token-78b34fd2-8b43-469d-907a-de057a0890a7, rgb(0, 212, 42)) /* {&quot;name&quot;:&quot;Brand 60&quot;} */" stroke-linecap="round" stroke-linejoin="round" stroke-dasharray=""></path></symbol><symbol id="svgsp0014"><path d="M 13 26.5 C 20.18 26.5 26 20.68 26 13.5 C 26 6.32 20.18 0.5 13 0.5 C 5.82 0.5 0 6.32 0 13.5 C 0 20.68 5.82 26.5 13 26.5 Z" fill="rgba(255, 255, 255, 0.02)"></path><path d="M 7.117 14.341 L 10.479 17.702 L 18.883 9.298" fill="transparent" stroke-width="2" stroke="var(--token-e4e6cca0-19fa-483d-9220-ccc9f275a14b, rgb(255, 180, 51)) /* {&quot;name&quot;:&quot;accent&quot;} */" stroke-linecap="round" stroke-linejoin="round" stroke-dasharray=""></path></symbol><symbol id="svgsp0015"><path d="M 5 5 L 9 9 M 9 9 L 13 13 M 9 9 L 5 13 M 9 9 L 13 5 M 2 18 L 16 18 C 17.105 18 18 17.105 18 16 L 18 2 C 18 0.895 17.105 0 16 0 L 2 0 C 0.895 0 0 0.895 0 2 L 0 16 C 0 17.105 0.895 18 2 18 Z" fill="transparent" height="18px" id="KCOsvi30C" stroke-dasharray="" stroke-linecap="round" stroke-linejoin="round" stroke-width="var(--1ww558a, 2)" stroke="var(--4rxgx6, black)" transform="translate(3 3)" width="18px"></path></symbol><symbol id="svgsp0016"><circle fill="#01a77d" cx="63.4" cy="61.2" r="57.8"></circle><g fill="#fff"><path d="M46.9 60.5h-.4c-1.9-.2-3.3-1.9-3.1-3.8.6-6.3 4.5-38 17.3-41.2 8.2-2 14.4 7.5 16.5 10.6 1.1 1.6.6 3.8-1 4.9s-3.8.6-4.9-1c-3.5-5.3-6.9-8.2-9-7.7-4.2 1-10 14.8-12 35.1-.2 1.7-1.7 3.1-3.4 3.1zm51.9-4.9c-.5 0-1-.1-1.4-.3-1.8-.8-2.6-2.9-1.8-4.6 2.6-5.8 3.2-10.2 1.7-11.7-3.1-3-17.8-.6-36.1 8.6-1.7.9-3.8.2-4.7-1.6-.9-1.7-.2-3.8 1.6-4.7.3-.2 8.3-4.1 17.4-7.1 13.4-4.5 22.2-4.5 26.7-.2 6.1 5.8 1.4 16.2-.1 19.6-.7 1.3-2 2-3.3 2zM88.2 89.5c-1.8 0-3.3-1.3-3.5-3.1-.2-1.9 1.1-3.7 3.1-3.9 6.3-.7 10.4-2.5 10.9-4.6 1-4.2-8.7-15.6-25.9-26.6-1.6-1-2.1-3.2-1.1-4.8s3.2-2.1 4.8-1.1c.3.2 7.8 5 15.1 11.3 10.7 9.3 15.3 16.7 13.9 22.8-1.9 8.2-13.2 9.5-16.9 10h-.4zm-25.9 18.1c-7.2 0-12.4-8.3-14.2-11.2-1-1.6-.5-3.8 1.1-4.8s3.8-.5 4.8 1.1c3.4 5.4 6.7 8.3 8.8 7.9 4.2-.9 10.3-14.5 12.9-34.8.2-1.9 2-3.3 3.9-3 1.9.2 3.3 2 3 3.9-.8 6.3-5.4 37.9-18.4 40.7-.5.1-1.2.2-1.9.2zm-25-18.1c-5.5 0-9.4-1.3-11.8-4-5.6-6.3-.1-16.3 1.6-19.5.9-1.7 3.1-2.3 4.7-1.4 1.7.9 2.3 3.1 1.4 4.7-3.1 5.6-4 9.9-2.6 11.5 2.9 3.2 17.7 1.9 36.7-5.7a3.57 3.57 0 0 1 4.6 1.9 3.57 3.57 0 0 1-1.9 4.6c-.3.1-8.6 3.5-17.9 5.8-5.9 1.4-10.8 2.1-14.8 2.1zm16.5-12.6c-.6 0-1.2-.2-1.8-.5-.3-.2-7.9-4.8-15.4-10.8-11-8.9-15.8-16.2-14.6-22.3 1.6-8.2 12.9-9.9 16.6-10.5 1.9-.3 3.7 1 4 2.9s-1 3.7-2.9 4c-6.3.9-10.3 2.8-10.7 4.9-1 4.3 9 15.3 26.6 25.8 1.7 1 2.2 3.1 1.2 4.8-.7 1.1-1.8 1.7-3 1.7z"></path><circle cx="63.8" cy="60.5" r="8.4"></circle></g></symbol><symbol id="svgsp0017"><path stroke-linecap="round" stroke-linejoin="round" d="M12 4.5v15m7.5-7.5h-15"></path></symbol><symbol id="svgsp0018"><path fill-rule="evenodd" clip-rule="evenodd" d="M20 12C20 16.4183 16.4183 20 12 20C7.58172 20 4 16.4183 4 12C4 7.58172 7.58172 4 12 4C16.4183 4 20 7.58172 20 12ZM22 12C22 17.5228 17.5228 22 12 22C6.47715 22 2 17.5228 2 12C2 6.47715 6.47715 2 12 2C17.5228 2 22 6.47715 22 12ZM13 8.99939C12.9997 8.4471 12.5517 7.99966 11.9994 8C11.4471 8.00034 10.9997 8.44833 11 9.00061L11.0024 13.0006C11.0026 13.3347 11.1697 13.6466 11.4477 13.832L14.4471 15.832C14.9066 16.1384 15.5275 16.0143 15.8339 15.5548C16.1403 15.0953 16.0161 14.4744 15.5566 14.168L13.0021 12.4647L13 8.99939Z" fill="currentColor"></path></symbol><symbol id="svgsp0019"><path stroke="currentColor" stroke-linecap="round" stroke-linejoin="round" stroke-width="2" d="m1 1 6 6m0 0 6 6M7 7l6-6M7 7l-6 6"></path></symbol><symbol id="svgsp0020"><path d="M20 12L14 6M20 12L14 18M20 12L9.5 12M4 12L6.5 12" stroke="#14746F" stroke-width="1.5" stroke-linecap="round" stroke-linejoin="round"></path></symbol><symbol id="svgsp0021"><path class="" fill="currentColor" d="M280 64l40 0c35.3 0 64 28.7 64 64l0 320c0 35.3-28.7 64-64 64L64 512c-35.3 0-64-28.7-64-64L0 128C0 92.7 28.7 64 64 64l40 0 9.6 0C121 27.5 153.3 0 192 0s71 27.5 78.4 64l9.6 0zM64 112c-8.8 0-16 7.2-16 16l0 320c0 8.8 7.2 16 16 16l256 0c8.8 0 16-7.2 16-16l0-320c0-8.8-7.2-16-16-16l-16 0 0 24c0 13.3-10.7 24-24 24l-88 0-88 0c-13.3 0-24-10.7-24-24l0-24-16 0zm128-8a24 24 0 1 0 0-48 24 24 0 1 0 0 48z"></path></symbol><symbol id="svgsp0022"><path class="" fill="currentColor" d="M533.6 32.5C598.5 85.2 640 165.8 640 256s-41.5 170.7-106.4 223.5c-10.3 8.4-25.4 6.8-33.8-3.5s-6.8-25.4 3.5-33.8C557.5 398.2 592 331.2 592 256s-34.5-142.2-88.7-186.3c-10.3-8.4-11.8-23.5-3.5-33.8s23.5-11.8 33.8-3.5zM473.1 107c43.2 35.2 70.9 88.9 70.9 149s-27.7 113.8-70.9 149c-10.3 8.4-25.4 6.8-33.8-3.5s-6.8-25.4 3.5-33.8C475.3 341.3 496 301.1 496 256s-20.7-85.3-53.2-111.8c-10.3-8.4-11.8-23.5-3.5-33.8s23.5-11.8 33.8-3.5zm-60.5 74.5C434.1 199.1 448 225.9 448 256s-13.9 56.9-35.4 74.5c-10.3 8.4-25.4 6.8-33.8-3.5s-6.8-25.4 3.5-33.8C393.1 284.4 400 271 400 256s-6.9-28.4-17.7-37.3c-10.3-8.4-11.8-23.5-3.5-33.8s23.5-11.8 33.8-3.5zM301.1 34.8C312.6 40 320 51.4 320 64l0 384c0 12.6-7.4 24-18.9 29.2s-25 3.1-34.4-5.3L131.8 352 64 352c-35.3 0-64-28.7-64-64l0-64c0-35.3 28.7-64 64-64l67.8 0L266.7 40.1c9.4-8.4 22.9-10.4 34.4-5.3z"></path></symbol><symbol id="svgsp0023"><path class="" fill="currentColor" d="M233.4 406.6c12.5 12.5 32.8 12.5 45.3 0l192-192c12.5-12.5 12.5-32.8 0-45.3s-32.8-12.5-45.3 0L256 338.7 86.6 169.4c-12.5-12.5-32.8-12.5-45.3 0s-12.5 32.8 0 45.3l192 192z"></path></symbol><symbol id="svgsp0024"><path class="" fill="currentColor" d="M0 128C0 92.7 28.7 64 64 64H320c35.3 0 64 28.7 64 64V384c0 35.3-28.7 64-64 64H64c-35.3 0-64-28.7-64-64V128z"></path></symbol><symbol id="svgsp0025"><path d="M6 8.825c-.2 0-.4-.1-.5-.2l-3.3-3.3c-.3-.3-.3-.8 0-1.1.3-.3.8-.3 1.1 0l2.7 2.7 2.7-2.7c.3-.3.8-.3 1.1 0 .3.3.3.8 0 1.1l-3.2 3.2c-.2.2-.4.3-.6.3Z"></path></symbol><symbol id="svgsp0026"><path d="M41 4H23L2 20.1L32 60l30-39.9z"></path><g class="is186"><path d="M32 60l12.5-39.9H18.8z"></path><path d="M9.5 9.5L2 20.1h16.8L23 4z"></path><path d="M54.5 9.5L41 4l3.5 16.1H62z"></path></g></symbol><symbol id="svgsp0027"><path class="" fill="currentColor" d="M256 192l-39.5-39.5c4.9-12.6 7.5-26.2 7.5-40.5C224 50.1 173.9 0 112 0S0 50.1 0 112s50.1 112 112 112c14.3 0 27.9-2.7 40.5-7.5L192 256l-39.5 39.5c-12.6-4.9-26.2-7.5-40.5-7.5C50.1 288 0 338.1 0 400s50.1 112 112 112s112-50.1 112-112c0-14.3-2.7-27.9-7.5-40.5L499.2 76.8c7.1-7.1 7.1-18.5 0-25.6c-28.3-28.3-74.1-28.3-102.4 0L256 192zm22.6 150.6L396.8 460.8c28.3 28.3 74.1 28.3 102.4 0c7.1-7.1 7.1-18.5 0-25.6L342.6 278.6l-64 64zM64 112a48 48 0 1 1 96 0 48 48 0 1 1 -96 0zm48 240a48 48 0 1 1 0 96 48 48 0 1 1 0-96z"></path></symbol><symbol id="svgsp0028"><path class="" fill="currentColor" d="M0 96C0 60.7 28.7 32 64 32l384 0c35.3 0 64 28.7 64 64l0 320c0 35.3-28.7 64-64 64L64 480c-35.3 0-64-28.7-64-64L0 96zM323.8 202.5c-4.5-6.6-11.9-10.5-19.8-10.5s-15.4 3.9-19.8 10.5l-87 127.6L170.7 297c-4.6-5.7-11.5-9-18.7-9s-14.2 3.3-18.7 9l-64 80c-5.8 7.2-6.9 17.1-2.9 25.4s12.4 13.6 21.6 13.6l96 0 32 0 208 0c8.9 0 17.1-4.9 21.2-12.8s3.6-17.4-1.4-24.7l-120-176zM112 192a48 48 0 1 0 0-96 48 48 0 1 0 0 96z"></path></symbol><symbol id="svgsp0029"><path d="M486.4 1024A230.656 230.656 0 0 1 256 793.6v-614.4C256 80.384 336.384 0 435.2 0S614.4 80.384 614.4 179.2v563.2c0 70.5536-57.4464 128-128 128S358.4 812.9536 358.4 742.4v-307.2a25.6 25.6 0 0 1 51.2 0v307.2c0 42.3424 34.4576 76.8 76.8 76.8s76.8-34.4576 76.8-76.8v-563.2C563.2 108.6464 505.7536 51.2 435.2 51.2S307.2 108.6464 307.2 179.2v614.4C307.2 892.416 387.584 972.8 486.4 972.8s179.2-80.384 179.2-179.2v-358.4a25.6 25.6 0 0 1 51.2 0v358.4c0 127.0272-103.3728 230.4-230.4 230.4z" fill=""></path></symbol><symbol id="svgsp0030"><path class="" fill="currentColor" d="M96 0C43 0 0 43 0 96L0 416c0 53 43 96 96 96l288 0 32 0c17.7 0 32-14.3 32-32s-14.3-32-32-32l0-64c17.7 0 32-14.3 32-32l0-320c0-17.7-14.3-32-32-32L384 0 96 0zm0 384l256 0 0 64L96 448c-17.7 0-32-14.3-32-32s14.3-32 32-32zm32-240c0-8.8 7.2-16 16-16l192 0c8.8 0 16 7.2 16 16s-7.2 16-16 16l-192 0c-8.8 0-16-7.2-16-16zm16 48l192 0c8.8 0 16 7.2 16 16s-7.2 16-16 16l-192 0c-8.8 0-16-7.2-16-16s7.2-16 16-16z"></path></symbol><symbol id="svgsp0031"><path d="M960 512c0 247.4-200.6 448-448 448-34.1 0-67.2-3.8-99.1-11l-2.7-0.6C211.8 902.3 64 724.4 64 512 64 264.6 264.6 64 512 64c209.9 0 386.2 144.4 434.7 339.3 8.7 34.8 13.3 71.2 13.3 108.7z" fill="#885AEF"></path><path d="M960 512c0 247.4-200.6 448-448 448-34.1 0-67.2-3.8-99.1-11l-2.7-0.6-180.5-180.8 570.2-511.1 146.8 146.8c8.7 34.8 13.3 71.2 13.3 108.7z" fill="#3F2867"></path><path d="M754.4 783.3H270.1c-33 0-60-27-60-60V295.5c0-33 27-60 60-60h484.3c33 0 60 27 60 60v427.8c0 33-27 60-60 60z" fill="#F8A000"></path><path d="M568.8 736.1H329.2c-33.1 0-60-26.9-60-60V148.9c0-33.1 26.9-60 60-60h365.5c33.1 0 60 26.9 60 60V520L568.8 736.1z" fill="#B9FCF3"></path><path d="M568.6 736.1H512V88.9h182.7c33.1 0 60 26.9 60 60V520L568.6 736.1z" fill="#96F5E6"></path><path d="M557.8 176.9c0-9.8 8-17.8 17.8-17.8H668c9.8 0 17.8 8 17.8 17.8s-8 17.8-17.8 17.8h-92.4c-9.8 0-17.8-8-17.8-17.8zM435.6 259.2H668c4.9 0 9.4 2 12.6 5.2 3.2 3.3 5.2 7.7 5.2 12.6 0 9.8-8 17.8-17.8 17.8H435.6c-4.9 0-9.4-2-12.6-5.2s-5.2-7.7-5.2-12.6c0-9.8 8-17.8 17.8-17.8z" fill="#3F2867"></path><path d="M423 289.6c-3.2-3.2-5.2-7.7-5.2-12.6 0-9.8 8-17.8 17.8-17.8h76v35.6h-76c-4.9 0-9.4-2-12.6-5.2z" fill="#8363D4"></path><path d="M814.4 395.5v327.8c0 33-27 60-60 60H270.1c-33 0-60-27-60-60V295.5c0-33 27-60 60-60h136.6l105.3 100h242.4c33 0 60 27 60 60z" fill="#FFD96E"></path><path d="M814.4 395.5v327.8c0 33-27 60-60 60H512V335.5h242.4c33 0 60 27 60 60z" fill="#F7C800"></path><path d="M612.6 599h-50.7v90.3c0 11-9 20-20 20h-59.8c-11 0-20-9-20-20V599h-50.7c-16.4 0-25.8-18.7-16.1-31.9l100.6-136.5c4-5.5 10.2-8.2 16.3-8.1 6 0.1 11.9 2.8 15.8 8.1l100.6 136.5c9.9 13.2 0.4 31.9-16 31.9z" fill="#E95C94"></path><path d="M612.6 599h-50.7v90.3c0 11-9 20-20 20h-29.6V422.5c6 0.1 11.9 2.8 15.8 8.1l100.6 136.5c9.8 13.2 0.3 31.9-16.1 31.9z" fill="#E02B6C"></path></symbol><symbol id="svgsp0032"><path stroke-linecap="round" stroke-linejoin="round" stroke-width="1.5" d="M12 6V4m0 2a2 2 0 100 4m0-4a2 2 0 110 4m-6 8a2 2 0 100-4m0 4a2 2 0 110-4m0 4v2m0-6V4m6 6v10m6-2a2 2 0 100-4m0 4a2 2 0 110-4m0 4v2m0-6V4"></path></symbol><symbol id="svgsp0033"><path stroke-linecap="round" stroke-linejoin="round" stroke-width="2" d="M4 4v5h.582m15.356 2A8.001 8.001 0 004.582 9m0 0H9m11 11v-5h-.581m0 0a8.003 8.003 0 01-15.357-2m15.357 2H15"></path></symbol><symbol id="svgsp0034"><path fill-rule="evenodd" clip-rule="evenodd" d="M11.03 2.31c1.014 1.048 1.36 2.47 1.36 3.688 0 1.294-.638 2.546-1.408 3.393-.388.427-.833.778-1.286.983-.445.201-.977.293-1.459.053a1 1 0 0 1-.475-.528c-.797.772-1.983 1.077-3.082.528-1.136-.568-1.424-1.846-1.347-2.948.077-1.114.535-2.308 1.21-2.983.945-.945 2.12-1.329 3.126-1.055.555.152 1.01.49 1.313.973q.073-.171.142-.326a.525.525 0 0 1 .977.38c-.26.779-.765 2.243-1.208 3.38-.129.509-.203.95-.207 1.28a1.1 1.1 0 0 0 .047.37c.092.035.26.041.53-.08.29-.132.622-.382.942-.733.644-.708 1.136-1.719 1.136-2.687 0-1.045-.3-2.168-1.066-2.958-.746-.771-2.02-1.314-4.164-1.046-1.827.228-3.242 1.494-3.944 3.13-.703 1.638-.661 3.581.357 5.108.611.917 1.893 1.64 3.475 1.855a7.17 7.17 0 0 0 4.911-1.117.525.525 0 1 1 .58.875 8.22 8.22 0 0 1-5.633 1.282c-1.778-.242-3.379-1.07-4.207-2.313C.405 8.947.382 6.621 1.202 4.71 2.023 2.797 3.72 1.235 5.981.952c2.38-.297 4.017.291 5.049 1.358M8.35 6.039v-.041c0-.937-.446-1.405-.957-1.544-.55-.15-1.354.031-2.107.784-.45.45-.84 1.377-.906 2.314-.066.951.209 1.655.77 1.936.824.412 1.826.025 2.287-.897.124-.247.282-.624.454-1.063l.017-.066c.122-.464.277-.95.443-1.423" fill="currentColor"></path></symbol><symbol id="svgsp0035"><path class="" fill="currentColor" d="M192 0C139 0 96 43 96 96l0 160c0 53 43 96 96 96s96-43 96-96l0-160c0-53-43-96-96-96zM64 216c0-13.3-10.7-24-24-24s-24 10.7-24 24l0 40c0 89.1 66.2 162.7 152 174.4l0 33.6-48 0c-13.3 0-24 10.7-24 24s10.7 24 24 24l72 0 72 0c13.3 0 24-10.7 24-24s-10.7-24-24-24l-48 0 0-33.6c85.8-11.7 152-85.3 152-174.4l0-40c0-13.3-10.7-24-24-24s-24 10.7-24 24l0 40c0 70.7-57.3 128-128 128s-128-57.3-128-128l0-40z"></path></symbol><symbol id="svgsp0036"><path class="" fill="currentColor" d="M342.6 150.6c12.5-12.5 12.5-32.8 0-45.3s-32.8-12.5-45.3 0L192 210.7 86.6 105.4c-12.5-12.5-32.8-12.5-45.3 0s-12.5 32.8 0 45.3L146.7 256 41.4 361.4c-12.5 12.5-12.5 32.8 0 45.3s32.8 12.5 45.3 0L192 301.3 297.4 406.6c12.5 12.5 32.8 12.5 45.3 0s12.5-32.8 0-45.3L237.3 256 342.6 150.6z"></path></symbol><symbol id="svgsp0037"><path class="" fill="currentColor" d="M438.6 105.4c12.5 12.5 12.5 32.8 0 45.3l-256 256c-12.5 12.5-32.8 12.5-45.3 0l-128-128c-12.5-12.5-12.5-32.8 0-45.3s32.8-12.5 45.3 0L160 338.7 393.4 105.4c12.5-12.5 32.8-12.5 45.3 0z"></path></symbol><symbol id="svgsp0038"> <path d="M6.823 7.823a.25.25 0 0 1 0 .354l-2.396 2.396A.25.25 0 0 1 4 10.396V5.604a.25.25 0 0 1 .427-.177Z"></path> <path d="M1.75 0h12.5C15.216 0 16 .784 16 1.75v12.5A1.75 1.75 0 0 1 14.25 16H1.75A1.75 1.75 0 0 1 0 14.25V1.75C0 .784.784 0 1.75 0ZM1.5 1.75v12.5c0 .138.112.25.25.25H9.5v-13H1.75a.25.25 0 0 0-.25.25ZM11 14.5h3.25a.25.25 0 0 0 .25-.25V1.75a.25.25 0 0 0-.25-.25H11Z"></path> </symbol><symbol id="svgsp0039"> <g stroke="none" stroke-width="1" fill="none" fill-rule="evenodd" sketch:type="MSPage"> <g sketch:type="MSLayerGroup" transform="translate(-259.000000, -257.000000)" fill="currentColor"> <path d="M265.5,267 C266.329,267 267,267.672 267,268.5 C267,269.329 266.329,270 265.5,270 C264.671,270 264,269.329 264,268.5 C264,267.672 264.671,267 265.5,267 L265.5,267 Z M271.5,267 C272.329,267 273,267.672 273,268.5 C273,269.329 272.329,270 271.5,270 C270.671,270 270,269.329 270,268.5 C270,267.672 270.671,267 271.5,267 L271.5,267 Z M277.5,267 C278.329,267 279,267.672 279,268.5 C279,269.329 278.329,270 277.5,270 C276.671,270 276,269.329 276,268.5 C276,267.672 276.671,267 277.5,267 L277.5,267 Z M268.637,279.736 C269.414,279.863 271.181,280 272,280 C279.18,280 284,274.657 284,268.375 C284,262.093 277.977,257 272,257 C264.811,257 259,262.093 259,268.375 C259,272.015 260.387,275.104 263,277.329 L263,283 L268.637,279.736 L268.637,279.736 Z M285.949,266.139 L286,267 C286.008,267.817 286,267.742 286,268.5 C286,276.475 279.716,282 271,282 L268,282 C270.38,284.328 273.149,285.75 277,285.75 C277.819,285.75 278.618,285.676 279.395,285.549 L285,289 L285,283.329 C288.04,281.246 290,278.015 290,274.375 C290,271.131 288.439,268.211 285.949,266.139 L285.949,266.139 Z" id="ait-comments" sketch:type="MSShapeGroup"></path> </g> </g> </symbol><symbol id="svgsp0040"><rect width="256" height="256" fill="none"></rect><path fill="currentColor" d="M225.86,102.82c-3.77-3.94-7.67-8-9.14-11.57-1.36-3.27-1.44-8.69-1.52-13.94-.15-9.76-.31-20.82-8-28.51s-18.75-7.85-28.51-8c-5.25-.08-10.67-.16-13.94-1.52-3.56-1.47-7.63-5.37-11.57-9.14C146.28,23.51,138.44,16,128,16s-18.27,7.51-25.18,14.14c-3.94,3.77-8,7.67-11.57,9.14C88,40.64,82.56,40.72,77.31,40.8c-9.76.15-20.82.31-28.51,8S41,67.55,40.8,77.31c-.08,5.25-.16,10.67-1.52,13.94-1.47,3.56-5.37,7.63-9.14,11.57C23.51,109.72,16,117.56,16,128s7.51,18.27,14.14,25.18c3.77,3.94,7.67,8,9.14,11.57,1.36,3.27,1.44,8.69,1.52,13.94.15,9.76.31,20.82,8,28.51s18.75,7.85,28.51,8c5.25.08,10.67.16,13.94,1.52,3.56,1.47,7.63,5.37,11.57,9.14C109.72,232.49,117.56,240,128,240s18.27-7.51,25.18-14.14c3.94-3.77,8-7.67,11.57-9.14,3.27-1.36,8.69-1.44,13.94-1.52,9.76-.15,20.82-.31,28.51-8s7.85-18.75,8-28.51c.08-5.25.16-10.67,1.52-13.94,1.47-3.56,5.37-7.63,9.14-11.57C232.49,146.28,240,138.44,240,128S232.49,109.73,225.86,102.82ZM128,192a12,12,0,1,1,12-12A12,12,0,0,1,128,192Zm8-48.72V144a8,8,0,0,1-16,0v-8a8,8,0,0,1,8-8c13.23,0,24-9,24-20s-10.77-20-24-20-24,9-24,20v4a8,8,0,0,1-16,0v-4c0-19.85,17.94-36,40-36s40,16.15,40,36C168,125.38,154.24,139.93,136,143.28Z"></path></symbol><symbol id="svgsp0041"><path class="" fill="currentColor" d="M416 208c0 45.9-14.9 88.3-40 122.7L502.6 457.4c12.5 12.5 12.5 32.8 0 45.3s-32.8 12.5-45.3 0L330.7 376c-34.4 25.2-76.8 40-122.7 40C93.1 416 0 322.9 0 208S93.1 0 208 0S416 93.1 416 208zM208 352a144 144 0 1 0 0-288 144 144 0 1 0 0 288z"></path></symbol><symbol id="svgsp0042"><path class="" fill="currentColor" d="M64 32C28.7 32 0 60.7 0 96L0 416c0 35.3 28.7 64 64 64l320 0c35.3 0 64-28.7 64-64l0-320c0-35.3-28.7-64-64-64L64 32zM325.8 139.7l14.4 14.4c15.6 15.6 15.6 40.9 0 56.6l-21.4 21.4-71-71 21.4-21.4c15.6-15.6 40.9-15.6 56.6 0zM119.9 289L225.1 183.8l71 71L190.9 359.9c-4.1 4.1-9.2 7-14.9 8.4l-60.1 15c-5.5 1.4-11.2-.2-15.2-4.2s-5.6-9.7-4.2-15.2l15-60.1c1.4-5.6 4.3-10.8 8.4-14.9z"></path></symbol><symbol id="svgsp0043"><path class="" fill="currentColor" d="M288 32c-80.8 0-145.5 36.8-192.6 80.6C48.6 156 17.3 208 2.5 243.7c-3.3 7.9-3.3 16.7 0 24.6C17.3 304 48.6 356 95.4 399.4C142.5 443.2 207.2 480 288 480s145.5-36.8 192.6-80.6c46.8-43.5 78.1-95.4 93-131.1c3.3-7.9 3.3-16.7 0-24.6c-14.9-35.7-46.2-87.7-93-131.1C433.5 68.8 368.8 32 288 32zM144 256a144 144 0 1 1 288 0 144 144 0 1 1 -288 0zm144-64c0 35.3-28.7 64-64 64c-7.1 0-13.9-1.2-20.3-3.3c-5.5-1.8-11.9 1.6-11.7 7.4c.3 6.9 1.3 13.8 3.2 20.7c13.7 51.2 66.4 81.6 117.6 67.9s81.6-66.4 67.9-117.6c-11.1-41.5-47.8-69.4-88.6-71.1c-5.8-.2-9.2 6.1-7.4 11.7c2.1 6.4 3.3 13.2 3.3 20.3z"></path></symbol><symbol id="svgsp0044"><path class="" fill="currentColor" d="M320 0c17.7 0 32 14.3 32 32l0 64 120 0c39.8 0 72 32.2 72 72l0 272c0 39.8-32.2 72-72 72l-304 0c-39.8 0-72-32.2-72-72l0-272c0-39.8 32.2-72 72-72l120 0 0-64c0-17.7 14.3-32 32-32zM208 384c-8.8 0-16 7.2-16 16s7.2 16 16 16l32 0c8.8 0 16-7.2 16-16s-7.2-16-16-16l-32 0zm96 0c-8.8 0-16 7.2-16 16s7.2 16 16 16l32 0c8.8 0 16-7.2 16-16s-7.2-16-16-16l-32 0zm96 0c-8.8 0-16 7.2-16 16s7.2 16 16 16l32 0c8.8 0 16-7.2 16-16s-7.2-16-16-16l-32 0zM264 256a40 40 0 1 0 -80 0 40 40 0 1 0 80 0zm152 40a40 40 0 1 0 0-80 40 40 0 1 0 0 80zM48 224l16 0 0 192-16 0c-26.5 0-48-21.5-48-48l0-96c0-26.5 21.5-48 48-48zm544 0c26.5 0 48 21.5 48 48l0 96c0 26.5-21.5 48-48 48l-16 0 0-192 16 0z"></path></symbol><symbol id="svgsp0045"><path d="M237.248 192H352a32 32 0 1 0 0-64H160a32 32 0 0 0-32 32v192a32 32 0 1 0 64 0v-114.752l137.36 137.36a32 32 0 1 0 45.232-45.264L237.248 192zM832 237.248V352a32 32 0 1 0 64 0V160a32 32 0 0 0-32-32H672a32 32 0 1 0 0 64h114.752l-137.36 137.36a32 32 0 1 0 45.264 45.232L832 237.248zM237.248 832H352a32 32 0 1 1 0 64H160a32 32 0 0 1-32-32V672a32 32 0 1 1 64 0v114.752l137.36-137.36a32 32 0 1 1 45.232 45.264L237.248 832zM832 786.752V672a32 32 0 1 1 64 0v192a32 32 0 0 1-32 32H672a32 32 0 1 1 0-64h114.752l-137.36-137.36a32 32 0 1 1 45.264-45.232L832 786.752z"></path></symbol><symbol id="svgsp0046"><g clip-path="url(#ait-clip0_11821_42642)"><path d="M2.18208 6.77174H11.8179M2.18208 6.77174C1.64991 6.77174 1.21851 6.34033 1.21851 5.80816V4.84458C1.21851 4.31241 1.64991 3.881 2.18208 3.881H11.8179C12.35 3.881 12.7814 4.31241 12.7814 4.84458V5.80816C12.7814 6.34033 12.35 6.77174 11.8179 6.77174M2.18208 6.77174L2.18208 11.5896C2.18208 12.1218 2.61349 12.5532 3.14566 12.5532H10.8543C11.3865 12.5532 11.8179 12.1218 11.8179 11.5896V6.77174M6.99998 3.881L9.31257 3.11014C9.67652 2.98882 9.96211 2.70323 10.0834 2.33927C10.401 1.38644 9.49454 0.479936 8.5417 0.797549C8.17775 0.918867 7.89216 1.20446 7.77084 1.56841L6.99998 3.881ZM6.99998 3.881L4.68739 3.11014C4.32344 2.98882 4.03784 2.70323 3.91653 2.33927C3.59891 1.38644 4.50541 0.479936 5.45825 0.797549C5.8222 0.918867 6.1078 1.20446 6.22911 1.56841L6.99998 3.881ZM6.99998 3.881V12.5532" stroke="currentColor" stroke-width="1.2"></path></g><defs><clipPath id="ait-clip0_11821_42642"><rect width="14" height="14" fill="white"></rect></clipPath></defs></symbol><symbol id="svgsp0047"><path class="" fill="currentColor" d="M48 64C21.5 64 0 85.5 0 112c0 15.1 7.1 29.3 19.2 38.4L236.8 313.6c11.4 8.5 27 8.5 38.4 0L492.8 150.4c12.1-9.1 19.2-23.3 19.2-38.4c0-26.5-21.5-48-48-48L48 64zM0 176L0 384c0 35.3 28.7 64 64 64l384 0c35.3 0 64-28.7 64-64l0-208L294.4 339.2c-22.8 17.1-54 17.1-76.8 0L0 176z"></path></symbol><symbol id="svgsp0048"><path class="" fill="currentColor" d="M495.9 166.6c3.2 8.7 .5 18.4-6.4 24.6l-43.3 39.4c1.1 8.3 1.7 16.8 1.7 25.4s-.6 17.1-1.7 25.4l43.3 39.4c6.9 6.2 9.6 15.9 6.4 24.6c-4.4 11.9-9.7 23.3-15.8 34.3l-4.7 8.1c-6.6 11-14 21.4-22.1 31.2c-5.9 7.2-15.7 9.6-24.5 6.8l-55.7-17.7c-13.4 10.3-28.2 18.9-44 25.4l-12.5 57.1c-2 9.1-9 16.3-18.2 17.8c-13.8 2.3-28 3.5-42.5 3.5s-28.7-1.2-42.5-3.5c-9.2-1.5-16.2-8.7-18.2-17.8l-12.5-57.1c-15.8-6.5-30.6-15.1-44-25.4L83.1 425.9c-8.8 2.8-18.6 .3-24.5-6.8c-8.1-9.8-15.5-20.2-22.1-31.2l-4.7-8.1c-6.1-11-11.4-22.4-15.8-34.3c-3.2-8.7-.5-18.4 6.4-24.6l43.3-39.4C64.6 273.1 64 264.6 64 256s.6-17.1 1.7-25.4L22.4 191.2c-6.9-6.2-9.6-15.9-6.4-24.6c4.4-11.9 9.7-23.3 15.8-34.3l4.7-8.1c6.6-11 14-21.4 22.1-31.2c5.9-7.2 15.7-9.6 24.5-6.8l55.7 17.7c13.4-10.3 28.2-18.9 44-25.4l12.5-57.1c2-9.1 9-16.3 18.2-17.8C227.3 1.2 241.5 0 256 0s28.7 1.2 42.5 3.5c9.2 1.5 16.2 8.7 18.2 17.8l12.5 57.1c15.8 6.5 30.6 15.1 44 25.4l55.7-17.7c8.8-2.8 18.6-.3 24.5 6.8c8.1 9.8 15.5 20.2 22.1 31.2l4.7 8.1c6.1 11 11.4 22.4 15.8 34.3zM256 336a80 80 0 1 0 0-160 80 80 0 1 0 0 160z"></path></symbol><symbol id="svgsp0049"><path class="" fill="currentColor" d="M224 256A128 128 0 1 0 224 0a128 128 0 1 0 0 256zm-45.7 48C79.8 304 0 383.8 0 482.3C0 498.7 13.3 512 29.7 512l388.6 0c16.4 0 29.7-13.3 29.7-29.7C448 383.8 368.2 304 269.7 304l-91.4 0z"></path></symbol><symbol id="svgsp0050"><path class="" fill="currentColor" d="M64 112c-8.8 0-16 7.2-16 16l0 22.1L220.5 291.7c20.7 17 50.4 17 71.1 0L464 150.1l0-22.1c0-8.8-7.2-16-16-16L64 112zM48 212.2L48 384c0 8.8 7.2 16 16 16l384 0c8.8 0 16-7.2 16-16l0-171.8L322 328.8c-38.4 31.5-93.7 31.5-132 0L48 212.2zM0 128C0 92.7 28.7 64 64 64l384 0c35.3 0 64 28.7 64 64l0 256c0 35.3-28.7 64-64 64L64 448c-35.3 0-64-28.7-64-64L0 128z"></path></symbol><symbol id="svgsp0051"><path fill-rule="evenodd" clip-rule="evenodd" d="M22.8423 3.0436C24.885 1.06876 27.6211 -0.0242977 30.4616 0.000409932C33.302 0.0251175 36.0188 1.1656 38.0268 3.17566C40.0348 5.18565 41.1735 7.90432 41.1981 10.746C41.2228 13.5877 40.1315 16.3257 38.1588 18.3703L38.1371 18.3928L32.7165 23.8185C32.7164 23.8186 32.7165 23.8184 32.7165 23.8185C31.6186 24.9178 30.297 25.7683 28.8418 26.3117C27.3864 26.8551 25.8313 27.0789 24.2819 26.9678C22.7324 26.8568 21.2251 26.4134 19.862 25.668C18.499 24.9225 17.3122 23.8924 16.382 22.6477C15.7881 21.8528 15.9509 20.7269 16.7458 20.133C17.5407 19.539 18.6665 19.7019 19.2605 20.4967C19.8823 21.3288 20.6755 22.0172 21.5862 22.5153C22.4969 23.0133 23.5039 23.3095 24.5388 23.3837C25.5737 23.4579 26.6125 23.3084 27.5848 22.9454C28.557 22.5823 29.44 22.0142 30.1738 21.2793L35.5831 15.8647C36.8952 14.4992 37.6214 12.673 37.6049 10.7772C37.5884 8.87653 36.8268 7.05875 35.4847 5.71527C34.1426 4.37185 32.3275 3.61014 30.4303 3.59364C28.5373 3.57717 26.713 4.304 25.3488 5.61846L22.2507 8.70169C21.5473 9.40164 20.4098 9.3989 19.7098 8.69556C19.0098 7.99222 19.0126 6.85462 19.7159 6.15467L22.8423 3.0436ZM14.0283 13.2153C15.4836 12.6719 17.0388 12.4481 18.5882 12.5592C20.1376 12.6703 21.645 13.1136 23.008 13.8591C24.3711 14.6045 25.5579 15.6346 26.488 16.8793C27.082 17.6742 26.9191 18.8001 26.1243 19.3941C25.3294 19.988 24.2035 19.8252 23.6095 19.0303C22.9878 18.1982 22.1946 17.5098 21.2838 17.0117C20.3731 16.5137 19.3662 16.2176 18.3312 16.1434C17.2963 16.0692 16.2575 16.2186 15.2853 16.5817C14.3131 16.9447 13.43 17.5129 12.6962 18.2477L7.28698 23.6624C5.97482 25.0279 5.24869 26.8541 5.26515 28.7498C5.28165 30.6505 6.04327 32.4683 7.3854 33.8118C8.72747 35.1552 10.5426 35.9169 12.4397 35.9334C14.3319 35.9499 16.1554 35.2237 17.5195 33.9103L20.5976 30.829C21.2989 30.127 22.4365 30.1265 23.1385 30.8278C23.8405 31.5291 23.8411 32.6667 23.1398 33.3687L20.0279 36.4836C17.9853 38.4585 15.2489 39.5513 12.4085 39.5266C9.56802 39.5019 6.85126 38.3614 4.84322 36.3514C2.83525 34.3414 1.69659 31.6227 1.67192 28.781C1.64725 25.9393 2.73854 23.2013 4.7113 21.1567L4.73298 21.1342L10.1536 15.7085C10.1537 15.7085 10.1535 15.7086 10.1536 15.7085C11.2515 14.6092 12.573 13.7587 14.0283 13.2153Z" fill="white"></path><path fill-rule="evenodd" clip-rule="evenodd" d="M22.8423 3.0436C24.885 1.06876 27.6211 -0.0242977 30.4616 0.000409932C33.302 0.0251175 36.0188 1.1656 38.0268 3.17566C40.0348 5.18565 41.1735 7.90432 41.1981 10.746C41.2228 13.5877 40.1315 16.3257 38.1588 18.3703L38.1371 18.3928L32.7165 23.8185C32.7164 23.8186 32.7165 23.8184 32.7165 23.8185C31.6186 24.9178 30.297 25.7683 28.8418 26.3117C27.3864 26.8551 25.8313 27.0789 24.2819 26.9678C22.7324 26.8568 21.2251 26.4134 19.862 25.668C18.499 24.9225 17.3122 23.8924 16.382 22.6477C15.7881 21.8528 15.9509 20.7269 16.7458 20.133C17.5407 19.539 18.6665 19.7019 19.2605 20.4967C19.8823 21.3288 20.6755 22.0172 21.5862 22.5153C22.4969 23.0133 23.5039 23.3095 24.5388 23.3837C25.5737 23.4579 26.6125 23.3084 27.5848 22.9454C28.557 22.5823 29.44 22.0142 30.1738 21.2793L35.5831 15.8647C36.8952 14.4992 37.6214 12.673 37.6049 10.7772C37.5884 8.87653 36.8268 7.05875 35.4847 5.71527C34.1426 4.37185 32.3275 3.61014 30.4303 3.59364C28.5373 3.57717 26.713 4.304 25.3488 5.61846L22.2507 8.70169C21.5473 9.40164 20.4098 9.3989 19.7098 8.69556C19.0098 7.99222 19.0126 6.85462 19.7159 6.15467L22.8423 3.0436ZM14.0283 13.2153C15.4836 12.6719 17.0388 12.4481 18.5882 12.5592C20.1376 12.6703 21.645 13.1136 23.008 13.8591C24.3711 14.6045 25.5579 15.6346 26.488 16.8793C27.082 17.6742 26.9191 18.8001 26.1243 19.3941C25.3294 19.988 24.2035 19.8252 23.6095 19.0303C22.9878 18.1982 22.1946 17.5098 21.2838 17.0117C20.3731 16.5137 19.3662 16.2176 18.3312 16.1434C17.2963 16.0692 16.2575 16.2186 15.2853 16.5817C14.3131 16.9447 13.43 17.5129 12.6962 18.2477L7.28698 23.6624C5.97482 25.0279 5.24869 26.8541 5.26515 28.7498C5.28165 30.6505 6.04327 32.4683 7.3854 33.8118C8.72747 35.1552 10.5426 35.9169 12.4397 35.9334C14.3319 35.9499 16.1554 35.2237 17.5195 33.9103L20.5976 30.829C21.2989 30.127 22.4365 30.1265 23.1385 30.8278C23.8405 31.5291 23.8411 32.6667 23.1398 33.3687L20.0279 36.4836C17.9853 38.4585 15.2489 39.5513 12.4085 39.5266C9.56802 39.5019 6.85126 38.3614 4.84322 36.3514C2.83525 34.3414 1.69659 31.6227 1.67192 28.781C1.64725 25.9393 2.73854 23.2013 4.7113 21.1567L4.73298 21.1342L10.1536 15.7085C10.1537 15.7085 10.1535 15.7086 10.1536 15.7085C11.2515 14.6092 12.573 13.7587 14.0283 13.2153Z" fill="url(#paint0_linear_18047_3202)"></path><defs><linearGradient id="paint0_linear_18047_3202" x1="10.1416" y1="17.5048" x2="25.9524" y2="40.0917" gradientUnits="userSpaceOnUse"><stop stop-color="rgba(1, 167, 125, .9)"></stop><stop offset="1" stop-color="#60a5fa"></stop></linearGradient></defs></symbol><symbol id="svgsp0052"><path class="" fill="currentColor" d="M169.4 470.6c12.5 12.5 32.8 12.5 45.3 0l160-160c12.5-12.5 12.5-32.8 0-45.3s-32.8-12.5-45.3 0L224 370.8 224 64c0-17.7-14.3-32-32-32s-32 14.3-32 32l0 306.7L54.6 265.4c-12.5-12.5-32.8-12.5-45.3 0s-12.5 32.8 0 45.3l160 160z"></path></symbol><symbol id="svgsp0053"><path fill-rule="evenodd" clip-rule="evenodd" d="M11.8795 10.3401C11.8795 6.79968 14.7411 3.84276 18.3761 3.84276C22.011 3.84276 24.8727 6.79968 24.8727 10.3401C24.8727 13.8804 22.011 16.8374 18.3761 16.8374C18.1848 16.8374 18.0003 16.8673 17.8267 16.9229C15.64 17.0126 13.4838 17.502 11.4584 18.3704C9.20642 19.336 7.16019 20.7513 5.43658 22.5354C3.71298 24.3196 2.34573 26.4377 1.41292 28.7689C0.480111 31.1 0 33.5985 0 36.1217C0 37.1828 0.831034 38.043 1.85617 38.043H35.2672C36.2923 38.043 37.1233 37.1828 37.1233 36.1217C37.1233 33.5985 36.6432 31.1 35.7104 28.7689C34.7776 26.4377 33.4104 24.3196 31.6867 22.5354C30.9619 21.7851 29.7866 21.7851 29.0617 22.5354C28.3368 23.2858 28.3368 24.5023 29.0617 25.2527C30.4406 26.68 31.5344 28.3745 32.2807 30.2394C32.7889 31.5096 33.1292 32.8419 33.2945 34.2003L3.8288 34.2003C3.99413 32.8419 4.3344 31.5096 4.84267 30.2394C5.58892 28.3745 6.68271 26.68 8.0616 25.2527C9.44049 23.8254 11.0775 22.6931 12.8791 21.9207C14.6807 21.1482 16.6116 20.7506 18.5617 20.7506C18.7692 20.7506 18.9688 20.7154 19.1551 20.6503C24.3899 20.2483 28.585 15.8289 28.585 10.3401C28.585 4.58142 23.9673 0 18.3761 0C12.7848 0 8.16717 4.58142 8.16717 10.3401C8.16717 11.4012 8.9982 12.2614 10.0233 12.2614C11.0485 12.2614 11.8795 11.4012 11.8795 10.3401Z" fill="white"></path><path fill-rule="evenodd" clip-rule="evenodd" d="M11.8795 10.3401C11.8795 6.79968 14.7411 3.84276 18.3761 3.84276C22.011 3.84276 24.8727 6.79968 24.8727 10.3401C24.8727 13.8804 22.011 16.8374 18.3761 16.8374C18.1848 16.8374 18.0003 16.8673 17.8267 16.9229C15.64 17.0126 13.4838 17.502 11.4584 18.3704C9.20642 19.336 7.16019 20.7513 5.43658 22.5354C3.71298 24.3196 2.34573 26.4377 1.41292 28.7689C0.480111 31.1 0 33.5985 0 36.1217C0 37.1828 0.831034 38.043 1.85617 38.043H35.2672C36.2923 38.043 37.1233 37.1828 37.1233 36.1217C37.1233 33.5985 36.6432 31.1 35.7104 28.7689C34.7776 26.4377 33.4104 24.3196 31.6867 22.5354C30.9619 21.7851 29.7866 21.7851 29.0617 22.5354C28.3368 23.2858 28.3368 24.5023 29.0617 25.2527C30.4406 26.68 31.5344 28.3745 32.2807 30.2394C32.7889 31.5096 33.1292 32.8419 33.2945 34.2003L3.8288 34.2003C3.99413 32.8419 4.3344 31.5096 4.84267 30.2394C5.58892 28.3745 6.68271 26.68 8.0616 25.2527C9.44049 23.8254 11.0775 22.6931 12.8791 21.9207C14.6807 21.1482 16.6116 20.7506 18.5617 20.7506C18.7692 20.7506 18.9688 20.7154 19.1551 20.6503C24.3899 20.2483 28.585 15.8289 28.585 10.3401C28.585 4.58142 23.9673 0 18.3761 0C12.7848 0 8.16717 4.58142 8.16717 10.3401C8.16717 11.4012 8.9982 12.2614 10.0233 12.2614C11.0485 12.2614 11.8795 11.4012 11.8795 10.3401Z" fill="url(#paint0_linear_18047_3240)"></path><defs><linearGradient id="paint0_linear_18047_3240" x1="7.955" y1="16.8477" x2="23.2962" y2="38.2338" gradientUnits="userSpaceOnUse"><stop stop-color="rgba(1, 167, 125, .9)"></stop><stop offset="1" stop-color="#60a5fa"></stop></linearGradient></defs></symbol><symbol id="svgsp0054"><path fill-rule="evenodd" clip-rule="evenodd" d="M11.1524 6.83074C11.1524 3.6117 13.7641 1 16.9831 1C20.2021 1 22.8138 3.6117 22.8138 6.83074V7.76822H27.9815C30.7352 7.76822 32.9662 9.99923 32.9662 12.7529V17.9206H33.9037C37.1227 17.9206 39.7344 20.5323 39.7344 23.7514C39.7344 26.9704 37.1227 29.5821 33.9037 29.5821H32.9662V34.7497C32.9662 37.5034 30.7352 39.7344 27.9815 39.7344H19.9511V35.5957C19.9511 33.9586 18.6203 32.6278 16.9831 32.6278C15.3459 32.6278 14.0151 33.9586 14.0151 35.5957V39.7344H5.98473C3.23101 39.7344 1 37.5034 1 34.7497L1.01059 26.7193H5.13867C6.77585 26.7193 8.10663 25.3885 8.10663 23.7513C8.10663 22.1141 6.77585 20.7833 5.13867 20.7833H1.00633L1.01692 12.7529C1.01692 12.7526 1.01692 12.7522 1.01692 12.7518C1.01755 10.0091 3.22096 7.76822 5.98473 7.76822H11.1524V6.83074ZM16.9831 4.20119C15.532 4.20119 14.3535 5.37967 14.3535 6.83074V10.9694H5.98473C5.00942 10.9694 4.21811 11.7567 4.21811 12.7529L4.21174 17.5822H5.13867C8.54382 17.5822 11.3078 20.3462 11.3078 23.7513C11.3078 27.1565 8.54382 29.9205 5.13867 29.9205H4.20756L4.20119 34.7497C4.20119 34.75 4.20119 34.7503 4.20119 34.7506C4.20168 35.7359 4.99928 36.5332 5.98473 36.5332H10.8139V35.5957C10.8139 32.1906 13.5779 29.4266 16.9831 29.4266C20.3882 29.4266 23.1522 32.1906 23.1522 35.5957V36.5332H27.9815C28.9672 36.5332 29.765 35.7354 29.765 34.7497V26.3809H33.9037C35.3547 26.3809 36.5332 25.2024 36.5332 23.7514C36.5332 22.3003 35.3547 21.1218 33.9037 21.1218H29.765V12.7529C29.765 11.7672 28.9672 10.9694 27.9815 10.9694H19.6126V6.83074C19.6126 5.37967 18.4342 4.20119 16.9831 4.20119Z" fill="white"></path><path fill-rule="evenodd" clip-rule="evenodd" d="M11.1524 6.83074C11.1524 3.6117 13.7641 1 16.9831 1C20.2021 1 22.8138 3.6117 22.8138 6.83074V7.76822H27.9815C30.7352 7.76822 32.9662 9.99923 32.9662 12.7529V17.9206H33.9037C37.1227 17.9206 39.7344 20.5323 39.7344 23.7514C39.7344 26.9704 37.1227 29.5821 33.9037 29.5821H32.9662V34.7497C32.9662 37.5034 30.7352 39.7344 27.9815 39.7344H19.9511V35.5957C19.9511 33.9586 18.6203 32.6278 16.9831 32.6278C15.3459 32.6278 14.0151 33.9586 14.0151 35.5957V39.7344H5.98473C3.23101 39.7344 1 37.5034 1 34.7497L1.01059 26.7193H5.13867C6.77585 26.7193 8.10663 25.3885 8.10663 23.7513C8.10663 22.1141 6.77585 20.7833 5.13867 20.7833H1.00633L1.01692 12.7529C1.01692 12.7526 1.01692 12.7522 1.01692 12.7518C1.01755 10.0091 3.22096 7.76822 5.98473 7.76822H11.1524V6.83074ZM16.9831 4.20119C15.532 4.20119 14.3535 5.37967 14.3535 6.83074V10.9694H5.98473C5.00942 10.9694 4.21811 11.7567 4.21811 12.7529L4.21174 17.5822H5.13867C8.54382 17.5822 11.3078 20.3462 11.3078 23.7513C11.3078 27.1565 8.54382 29.9205 5.13867 29.9205H4.20756L4.20119 34.7497C4.20119 34.75 4.20119 34.7503 4.20119 34.7506C4.20168 35.7359 4.99928 36.5332 5.98473 36.5332H10.8139V35.5957C10.8139 32.1906 13.5779 29.4266 16.9831 29.4266C20.3882 29.4266 23.1522 32.1906 23.1522 35.5957V36.5332H27.9815C28.9672 36.5332 29.765 35.7354 29.765 34.7497V26.3809H33.9037C35.3547 26.3809 36.5332 25.2024 36.5332 23.7514C36.5332 22.3003 35.3547 21.1218 33.9037 21.1218H29.765V12.7529C29.765 11.7672 28.9672 10.9694 27.9815 10.9694H19.6126V6.83074C19.6126 5.37967 18.4342 4.20119 16.9831 4.20119Z" fill="url(#paint0_linear_18267_3259)"></path><defs><linearGradient id="paint0_linear_18267_3259" x1="9.30023" y1="18.1538" x2="24.794" y2="40.2877" gradientUnits="userSpaceOnUse"><stop stop-color="rgba(1, 167, 125, .9)"></stop><stop offset="1" stop-color="#60a5fa"></stop></linearGradient></defs></symbol></defs></svg>